# xmcd
#
# Track frame offsets:
#        150
#        12766
#        30332
#        41692
#        56371
#        71859
#        84637
#        98242
#        111856
#        122220
#        137890
#        154701
#        164411
#        176639
#        191153
#        218329
#
# Disc length: 2915 seconds
#
# Revision: 0
# Processed by: cddbd v1.5.2PL0 Copyright (c) Steve Scherf et al.
# Submitted via: CDGFix 3.7i
#
DISCID=d90b6110
DTITLE=Various Artist - CB60253
DYEAR=1900
DGENRE=Karaoke
TTITLE0=Buck Owens - Act Naturally
TTITLE1=Mickey Gilley - Stand By Me
TTITLE2=Dolly Parton - 9 To 5
TTITLE3=Kenny Rogers - Ruby, Don't Take Your Love To Town
TTITLE4=Merle Haggard - Silver Wings
TTITLE5=Marty Robbins - White Sport Coat (And A Pink Carnation)
TTITLE6=Conway Twitty - Tight Fittin' Jeans
TTITLE7=Tanya Tucker - What's Your Mama's Name
TTITLE8=Tom T Hall - I Love
TTITLE9=Lefty Frizzell - Saginaw, Michigan
TTITLE10=Ray Stevens - Everything Is Beautiful
TTITLE11=Loretta Lynn - Don't Come Home A Drinkin' (With Lovin' On Your Mind)
TTITLE12=The Osborne Brothers - Rocky Top
TTITLE13=Mickey Gilley - Don't The Girls All Get Prettier At Closing Time
TTITLE14=Freddy Fender - Wasted Days And Wasted Nights
TTITLE15=DATA - DATA Track
EXTD=
EXTT0=
EXTT1=
EXTT2=
EXTT3=
EXTT4=
EXTT5=
EXTT6=
EXTT7=
EXTT8=
EXTT9=
EXTT10=
EXTT11=
EXTT12=
EXTT13=
EXTT14=
EXTT15=
PLAYORDER=
